<?xml version="1.0" encoding="utf-8"?>
<!-- Generator: Adobe Illustrator 18.1.1, SVG Export Plug-In . SVG Version: 6.00 Build 0)  -->
<svg version="1.1" xmlns="http://www.w3.org/2000/svg" xmlns:xlink="http://www.w3.org/1999/xlink" x="0px" y="0px"
	 viewBox="0 0 48 48" enable-background="new 0 0 48 48" xml:space="preserve">
<g id="Layer_1">
	<g>
		<g>
			<path d="M42.6,41.6h-2v0.9c0,3.1,2,5.4,2,5.4s2-2.4,2-5.4c0-0.7,0-1,0-1L42.6,41.6z"/>
			<polygon points="47.4,28.4 46.2,27.2 46.2,33.6 47.4,33.6 			"/>
			<path d="M0.6,48h36V0h-36V48z M7.1,8h21.8v3.2H7.1V8z M7.1,14.4h18.8v3.2H7.1V14.4z M7.1,20.8h21.8V24H7.1V20.8z"/>
			<rect x="36.2" y="31.6" transform="matrix(7.135430e-04 1 -1 7.135430e-04 76.2097 -9.016)" width="12.8" height="4"/>
		</g>
		<path fill="#FFFFFF" d="M25,39.7c-0.4,0-0.8-0.3-0.8-0.7c0-0.4,0.3-0.7,0.8-0.7c0.4,0,0.8,0.3,0.8,0.7
			C25.7,39.4,25.4,39.7,25,39.7L25,39.7z"/>
		<path fill="#FFFFFF" d="M22.1,39.4c-0.8,0-1.4-0.5-1.7-0.8v0c-0.3,0.3-0.8,0.8-1.8,1c-0.8,0.1-3.1,0.2-3.9-0.6
			c-0.4-0.4-0.2-1.1,0-1.8c0-0.1,0.1-0.2,0.1-0.4c-0.6,0.4-1.3,1.2-1.8,1.9c-0.8,1-1.4,1.7-2.2,1.7c-0.3,0-0.6-0.1-0.9-0.5
			c-0.3-0.4-0.3-1.1-0.1-2c-0.5,0.8-1,1.6-1.5,2.4c-0.1,0.2-0.3,0.2-0.5,0.2c-0.1,0-0.2,0-0.2,0c-0.3-0.1-0.4-0.3-0.3-0.6
			c2.4-3.8,4.4-6.9,5.5-8.8c0.2-0.4,0.6-0.4,0.8-0.3c0.1,0,0.5,0.2,0.3,0.6v0l0,0c0,0,0,0,0,0.1c-2.3,4.1-3.5,7.3-2.9,8.1
			c0.3-0.2,0.8-0.8,1.1-1.2c0.8-1,1.7-2.2,2.9-2.5c0.4-0.1,0.7,0,0.8,0.1c0.4,0.3,0.3,0.8,0.1,1.4c-0.1,0.3-0.3,1-0.2,1.2
			c0.3,0.3,1.7,0.4,2.7,0.3c0.6-0.1,0.8-0.4,1.1-0.7c0.2-0.2,0.4-0.4,0.7-0.5c0.2,0,0.4,0,0.6,0.1c0.2,0.1,0.3,0.2,0.5,0.4
			c0.3,0.3,0.5,0.5,0.8,0.5c0.3,0,0.6,0.2,0.6,0.4C22.7,39.2,22.4,39.4,22.1,39.4L22.1,39.4z"/>
	</g>
</g>
<g id="Guidelines">
</g>
</svg>
