<?xml version="1.0" encoding="utf-8"?>
<!-- Generator: Adobe Illustrator 18.1.1, SVG Export Plug-In . SVG Version: 6.00 Build 0)  -->
<svg version="1.1" id="Layer_1" xmlns="http://www.w3.org/2000/svg" xmlns:xlink="http://www.w3.org/1999/xlink" x="0px" y="0px"
	 viewBox="0 0 48 48" enable-background="new 0 0 48 48" xml:space="preserve">
<g>
	<polygon points="27.2,3.5 24,3.5 24,0.3 17.5,0.3 17.5,3.5 14.2,3.5 14.2,6.8 27.2,6.8 	"/>
	<path d="M37.3,5.2h-8.1v3.3H13V5.2H4.9v3.3v34.3h32.4V5.2z M22.8,36.3h-13V33h13V36.3z M32.4,28.3H9.7V25h22.7V28.3z M32.4,20.2
		H9.7V17h22.7V20.2z"/>
	<polygon points="39,10.2 39,44.4 10.9,44.4 10.9,47.7 42.8,47.7 42.8,45.8 42.8,10.2 	"/>
</g>
<g>
</g>
<g>
</g>
<g>
</g>
<g>
</g>
<g>
</g>
<g>
</g>
<g>
</g>
<g>
</g>
<g>
</g>
<g>
</g>
<g>
</g>
<g>
</g>
<g>
</g>
<g>
</g>
<g>
</g>
</svg>
