<?xml version="1.0" encoding="utf-8"?>
<!-- Generator: Adobe Illustrator 18.1.1, SVG Export Plug-In . SVG Version: 6.00 Build 0)  -->
<svg version="1.1" xmlns="http://www.w3.org/2000/svg" xmlns:xlink="http://www.w3.org/1999/xlink" x="0px" y="0px"
	 viewBox="0 0 48 48" enable-background="new 0 0 48 48" xml:space="preserve">
<g id="Layer_1">
	<path d="M0.6,0h36v48h-36V0z M28.2,34.5l1.7-1.7l-1.1-1.1l-1.7,1.7l-1.7-1.7l-1.1,1.1l1.7,1.8l-1.7,1.7l1.1,1.1l1.8-1.8l1.7,1.7
		l1.1-1.1L28.2,34.5z M7.1,11.2h21.8V8H7.1V11.2z M7.1,17.6h18.8v-3.2H7.1V17.6z M7.1,24h21.8v-3.2H7.1V24z M7,41.6h24v-0.8H7V41.6z
		 M43.6,29.6c0-1.3-0.8-2.2-1.9-2.2c-1,0-2,0.9-2,2.3v12.1h3.9V30.6h1v3.7h1v-4.7H43.6z M41.6,47l-1.9-3.6h3.8L41.6,47z"/>
</g>
<g id="Guidelines">
</g>
</svg>
