<?xml version="1.0" encoding="utf-8"?>
<!-- Generator: Adobe Illustrator 18.1.1, SVG Export Plug-In . SVG Version: 6.00 Build 0)  -->
<svg version="1.1" xmlns="http://www.w3.org/2000/svg" xmlns:xlink="http://www.w3.org/1999/xlink" x="0px" y="0px"
	 viewBox="0 0 48 48" enable-background="new 0 0 48 48" xml:space="preserve">
<g id="Layer_1">
	<g>
		<path d="M24,5.1c-1.4,0-2.5-1.1-2.5-2.5C21.5,1.1,22.6,0,24,0c1.4,0,2.5,1.1,2.5,2.5S25.4,5.1,24,5.1z"/>
		<g>
			<path d="M19.2,43.1c0,2.7,2.2,4.9,4.9,4.9c2.7,0,4.9-2.2,4.9-4.9c0,0,0,0,0,0L19.2,43.1C19.2,43.1,19.2,43.1,19.2,43.1z"/>
		</g>
		<path d="M37.2,36.2V18.6c0-6.5-5.3-11.9-11.9-11.9h-2.7c-6.5,0-11.9,5.3-11.9,11.9v12.8v4.7l-6.2,3.1v1.5h38.8v-1.5L37.2,36.2z
			 M24,8.1c-3.9,1.6-6.3,4.3-8.1,6.6c-1.8,2.4-2.7,4.6-3.5,6.3C12.7,12.2,17.6,8.3,24,8.1z"/>
	</g>
</g>
<g id="Guidelines">
</g>
</svg>
