<?xml version="1.0" encoding="utf-8"?>
<!-- Generator: Adobe Illustrator 16.0.3, SVG Export Plug-In . SVG Version: 6.00 Build 0)  -->
<!DOCTYPE svg PUBLIC "-//W3C//DTD SVG 1.1//EN" "http://www.w3.org/Graphics/SVG/1.1/DTD/svg11.dtd">
<svg version="1.1" id="Layer_1" xmlns:sketch="http://www.bohemiancoding.com/sketch/ns"
	 xmlns="http://www.w3.org/2000/svg" xmlns:xlink="http://www.w3.org/1999/xlink" x="0px" y="0px" width="720px" height="720px"
	 viewBox="0 0 720 720" enable-background="new 0 0 720 720" xml:space="preserve">
<path d="M-1.64,66.48v456.768h171.576V629.88L309.04,523.248h410.832V66.48H-1.64z M354.4,404.52
	c-10.8,0-19.512-8.712-19.512-19.512s8.712-19.512,19.512-19.512c10.8,0,19.512,8.712,19.512,19.512S365.2,404.52,354.4,404.52z
	 M366.928,318.408v25.128H340.36V290.4h14.04c18.72,0,33.984-15.408,33.984-34.128c0-18.721-15.264-32.832-33.984-32.832
	c-18.72,0-33.912,13.823-33.912,35.063H290.32c0-37.152,28.728-65.304,64.08-65.304s62.784,28.151,62.784,63.504
	C417.256,286.872,398.824,311.64,366.928,318.408z"/>
</svg>
