<?xml version="1.0" encoding="utf-8"?>
<!-- Generator: Adobe Illustrator 16.0.3, SVG Export Plug-In . SVG Version: 6.00 Build 0)  -->
<!DOCTYPE svg PUBLIC "-//W3C//DTD SVG 1.1//EN" "http://www.w3.org/Graphics/SVG/1.1/DTD/svg11.dtd">
<svg version="1.1" id="Layer_1" xmlns:sketch="http://www.bohemiancoding.com/sketch/ns"
	 xmlns="http://www.w3.org/2000/svg" xmlns:xlink="http://www.w3.org/1999/xlink" x="0px" y="0px" width="720px" height="720px"
	 viewBox="0 0 720 720" enable-background="new 0 0 720 720" xml:space="preserve">
<title>Panel</title>
<desc>Created with Sketch.</desc>
<path d="M719,579.656V272.904l-119.235-68.28l-119.235,68.28v136.561H374.031V205.134l-119.235-68.28l-119.236,68.28v136.561H-1
	v237.962h204.331v-50.955h102.421v50.955H719z M650.72,306.535h34.141v34.141H650.72V306.535z M650.72,374.815h34.141v34.14H650.72
	V374.815z M650.72,443.096h34.141v34.141H650.72V443.096z M650.72,511.376h34.141v34.14H650.72V511.376z M582.439,306.535h34.141
	v34.141h-34.141V306.535z M582.439,374.815h34.141v34.14h-34.141V374.815z M582.439,443.096h34.141v34.141h-34.141V443.096z
	 M582.439,511.376h34.141v34.14h-34.141V511.376z M514.669,306.535h34.14v34.141h-34.14V306.535z M514.669,374.815h34.14v34.14
	h-34.14V374.815z M514.669,443.096h34.14v34.141h-34.14V443.096z M514.669,511.376h34.14v34.14h-34.14V511.376z M446.389,443.096
	h34.141v34.141h-34.141V443.096z M446.389,511.376h34.141v34.14h-34.141V511.376z M378.108,443.096h34.14v34.141h-34.14V443.096z
	 M378.108,511.376h34.14v34.14h-34.14V511.376z M67.28,545.516H33.14v-34.14h34.14V545.516z M67.28,477.236H33.14v-34.141h34.14
	V477.236z M67.28,408.955H33.14v-34.14h34.14V408.955z M135.561,545.516h-34.14v-34.14h34.14V545.516z M135.561,477.236h-34.14
	v-34.141h34.14V477.236z M135.561,408.955h-34.14v-34.14h34.14V408.955z M203.331,477.236h-34.14v-34.141h34.14V477.236z
	 M203.331,408.955h-34.14v-34.14h34.14V408.955z M203.331,340.676h-34.14v-34.141h34.14V340.676z M203.331,272.904h-34.14v-34.14
	h34.14V272.904z M271.611,477.236h-34.14v-34.141h34.14V477.236z M271.611,408.955h-34.14v-34.14h34.14V408.955z M271.611,340.676
	h-34.14v-34.141h34.14V340.676z M271.611,272.904h-34.14v-34.14h34.14V272.904z M305.751,238.765h34.14v34.14h-34.14V238.765z
	 M305.751,306.535h34.14v34.141h-34.14V306.535z M305.751,374.815h34.14v34.14h-34.14V374.815z M305.751,443.096h34.14v34.141
	h-34.14V443.096z"/>
</svg>
