<?xml version="1.0" encoding="utf-8"?>
<!-- Generator: Adobe Illustrator 18.1.0, SVG Export Plug-In . SVG Version: 6.00 Build 0)  -->
<svg version="1.1" id="Layer_1" xmlns="http://www.w3.org/2000/svg" xmlns:xlink="http://www.w3.org/1999/xlink" x="0px" y="0px"
	 viewBox="0 0 56 56" enable-background="new 0 0 56 56" xml:space="preserve">
<path fill="#010101" d="M18.8,21.4h4.4V26h-4.4V21.4z M26.1,26h4.4v-4.6h-4.4V26z M33.4,26h4.4v-4.6h-4.4V26z M18.8,33.5h4.4v-4.6
	h-4.4V33.5z M26.1,33.5h4.4v-4.6h-4.4V33.5z M33.4,33.5h4.4v-4.6h-4.4V33.5z M18.8,41h4.4v-4.6h-4.4V41z M26.1,41h4.4v-4.6h-4.4V41z
	 M40.4,18H15.7v26h24.7V18z M43.2,15v32.1H12.8V15h4.3V8.9h4.3V15h4.3V8.9h4.6V15h4.2V8.9H39V15H43.2z"/>
</svg>
