<?xml version="1.0" encoding="utf-8"?>
<!-- Generator: Adobe Illustrator 18.1.1, SVG Export Plug-In . SVG Version: 6.00 Build 0)  -->
<svg version="1.1" id="Layer_1" xmlns="http://www.w3.org/2000/svg" xmlns:xlink="http://www.w3.org/1999/xlink" x="0px" y="0px"
	 viewBox="0 0 1280 800" enable-background="new 0 0 1280 800" xml:space="preserve">
<g id="Layer_1_1_">
</g>
<path d="M640,537.7c48,0,89.7-10.9,115.9-28.1c6.1,6.1,9.4,12.4,9.4,18.6c0,24.5-51.4,51.8-125.3,51.8
	c-73.8,0-125.2-27.3-125.2-51.8c0-6.2,3.3-12.6,9.4-18.6C550.3,526.7,592,537.7,640,537.7 M640,475c-48,0-89.7-10.9-115.8-28.1
	c-6.1,6.1-9.4,12.5-9.4,18.6c0,24.5,51.4,51.8,125.2,51.8s125.3-27.3,125.3-51.8c0-6.2-3.3-12.6-9.4-18.6
	C729.7,464.1,688,475,640,475 M640,412.4c-48,0-89.7-10.9-115.8-28.1c-6.1,6.1-9.4,12.4-9.4,18.6c0,24.5,51.4,51.8,125.2,51.8
	s125.3-27.3,125.3-51.8c0-6.2-3.3-12.6-9.4-18.6C729.7,401.5,688,412.4,640,412.4 M640,349.8c-48,0-89.7-10.9-115.8-28
	c-6.1,6.1-9.4,12.4-9.4,18.6c0,24.5,51.4,51.8,125.2,51.8s125.3-27.3,125.3-51.8c0-6.2-3.3-12.6-9.4-18.6
	C729.7,338.8,688,349.8,640,349.8 M640,329.5c69.2,0,125.3-24.5,125.3-54.8s-56.1-54.8-125.3-54.8s-125.3,24.5-125.3,54.8
	S570.8,329.5,640,329.5"/>
</svg>
