<?xml version="1.0" encoding="utf-8"?>
<!-- Generator: Adobe Illustrator 18.1.0, SVG Export Plug-In . SVG Version: 6.00 Build 0)  -->
<svg version="1.1" id="Layer_1" xmlns="http://www.w3.org/2000/svg" xmlns:xlink="http://www.w3.org/1999/xlink" x="0px" y="0px"
	 viewBox="0 0 56 56" enable-background="new 0 0 56 56" xml:space="preserve">
<path fill="#010101" d="M28,39c3.8,0,7.2-0.9,9.2-2.2c0.5,0.5,0.7,1,0.7,1.5c0,2-4.1,4.1-10,4.1c-5.9,0-10-2.2-10-4.1
	c0-0.5,0.3-1,0.7-1.5C20.8,38.1,24.2,39,28,39 M28,34c-3.8,0-7.2-0.9-9.2-2.2c-0.5,0.5-0.7,1-0.7,1.5c0,2,4.1,4.1,10,4.1
	s10-2.2,10-4.1c0-0.5-0.3-1-0.7-1.5C35.2,33.1,31.8,34,28,34 M28,29c-3.8,0-7.2-0.9-9.2-2.2c-0.5,0.5-0.7,1-0.7,1.5
	c0,2,4.1,4.1,10,4.1s10-2.2,10-4.1c0-0.5-0.3-1-0.7-1.5C35.2,28.1,31.8,29,28,29 M28,24c-3.8,0-7.2-0.9-9.2-2.2
	c-0.5,0.5-0.7,1-0.7,1.5c0,2,4.1,4.1,10,4.1s10-2.2,10-4.1c0-0.5-0.3-1-0.7-1.5C35.2,23.1,31.8,24,28,24 M28,22.4c5.5,0,10-2,10-4.4
	s-4.5-4.4-10-4.4s-10,2-10,4.4S22.5,22.4,28,22.4"/>
</svg>
