<?xml version="1.0" encoding="utf-8"?>
<!-- Generator: Adobe Illustrator 18.1.0, SVG Export Plug-In . SVG Version: 6.00 Build 0)  -->
<svg version="1.1" id="Layer_1" xmlns="http://www.w3.org/2000/svg" xmlns:xlink="http://www.w3.org/1999/xlink" x="0px" y="0px"
	 viewBox="0 0 56 56" enable-background="new 0 0 56 56" xml:space="preserve">
<path fill-rule="evenodd" clip-rule="evenodd" d="M39.5,39h-8.1v-2.8h8.1V39z M24.5,26.5l4.3-4.3L17,10.3l-4.3,4.3L24.5,26.5z
	 M34.3,32c0,0-4.5-0.2-7.6-3.2l-0.9-0.9l2.2-2.2l2.2-2.2c0,0,0.2,0.2,0.9,0.9C34.2,27.5,34.3,32,34.3,32z M24.2,15l1-1l-4.5-4.5
	l-2.1,0L24.2,15z M35.6,26.6l2.8,2.8h4.9v12.1H12.8V29.4h11.5l-2.8-2.8H10v17.6h36V26.6H35.6z"/>
</svg>
