<?xml version="1.0" encoding="utf-8"?>
<!-- Generator: Adobe Illustrator 18.1.1, SVG Export Plug-In . SVG Version: 6.00 Build 0)  -->
<svg version="1.1" xmlns="http://www.w3.org/2000/svg" xmlns:xlink="http://www.w3.org/1999/xlink" x="0px" y="0px"
	 viewBox="0 0 50 50" enable-background="new 0 0 50 50" xml:space="preserve">
<g id="Layer_1">
</g>
<g id="Layer_2">
	<path fill="#231F20" d="M31.3,21.8h8.7v14.6H10.1V21.8h9.5l2.3,2.3h-9.5v10h25.3v-10h-4.1L31.3,21.8z M34.5,29.8h-6.7v2.3h6.7V29.8
		z M25.7,18.1l-9.8-9.8l-3.6,3.6l9.8,9.8L25.7,18.1z M30.3,26.3c0,0-0.1-4.1-3.4-7l-3.6,3.6C23.2,22.8,25.8,26,30.3,26.3z
		 M21.8,12.1l0.9-0.9L19,7.6l-1.7,0L21.8,12.1z"/>
</g>
</svg>
