<?xml version="1.0" encoding="utf-8"?>
<!-- Generator: Adobe Illustrator 18.1.1, SVG Export Plug-In . SVG Version: 6.00 Build 0)  -->
<svg version="1.1" xmlns="http://www.w3.org/2000/svg" xmlns:xlink="http://www.w3.org/1999/xlink" x="0px" y="0px"
	 viewBox="0 0 48 48" enable-background="new 0 0 48 48" xml:space="preserve">
<g id="Layer_1">
	<path fill="#221F1F" d="M7.4,40.6h3.7v3.7H7.4V40.6z M14.8,40.6h3.7v3.7h-3.7V40.6z M7.4,33.2h3.7v3.7H7.4V33.2z M14.8,33.2h3.7
		v3.7h-3.7V33.2z M22.2,33.2h3.7v3.7h-3.7V33.2z M29.5,33.2h3.7v3.7h-3.7V33.2z M36.9,33.2h3.7v3.7h-3.7V33.2z M7.4,25.8h3.7v3.7
		H7.4V25.8z M14.8,25.8h3.7v3.7h-3.7V25.8z M22.2,25.8h3.7v3.7h-3.7V25.8z M29.5,25.8h3.7v3.7h-3.7V25.8z M36.9,25.8h3.7v3.7h-3.7
		V25.8z M22.2,18.5h3.7v3.7h-3.7V18.5z M29.5,18.5h3.7v3.7h-3.7V18.5z M36.9,18.5h3.7v3.7h-3.7V18.5z M22.2,11.1h3.7v3.7h-3.7V11.1z
		 M29.5,11.1h3.7v3.7h-3.7V11.1z M36.9,11.1h3.7v3.7h-3.7V11.1z M31.4,0L18.5,7.4v14.8H3.7V48h14.8h1.8h5.5v-5.5h11.1V48h7.4V7.4
		L31.4,0z"/>
</g>
<g id="Guidelines">
</g>
</svg>
