<?xml version="1.0" encoding="utf-8"?>
<!-- Generator: Adobe Illustrator 18.1.1, SVG Export Plug-In . SVG Version: 6.00 Build 0)  -->
<svg version="1.1" id="Layer_1" xmlns="http://www.w3.org/2000/svg" xmlns:xlink="http://www.w3.org/1999/xlink" x="0px" y="0px"
	 viewBox="0 0 32 21.6" enable-background="new 0 0 32 21.6" xml:space="preserve">
<g>
	<path d="M18.9,12.7v2.1h-3.3v1.4c0,0.7-0.1,1.4-0.3,1.9c-0.2,0.6-0.5,1-0.9,1.2v0h6l-0.2,2.2h-8.8l-0.1-2.2c0.6-0.3,1-0.6,1.2-1.1
		c0.3-0.5,0.4-1,0.4-1.7v-1.8h-1.7v-2.1H13v-1.5c0-3.4,1.6-5.1,4.9-5.1c0.4,0,0.9,0,1.4,0.1c0.5,0.1,1,0.2,1.5,0.4L20.4,9
		c-0.3-0.1-0.7-0.2-1.1-0.3c-0.4-0.1-0.8-0.1-1.1-0.1c-0.9,0-1.6,0.2-2,0.7c-0.4,0.4-0.6,1.2-0.6,2.2v1.2H18.9z"/>
	<path d="M28.8,15.7V0H3v15.7H0v3h10.4l0.4-0.2c0.4-0.2,0.6-0.4,0.8-0.7c0.2-0.3,0.3-0.7,0.3-1.2v-0.9h-1.7H5V2h21.8v13.7h-6.9h-3.3
		v0.5c0,0.8-0.1,1.9-0.5,2.5h16v-3H28.8z"/>
</g>
<g>
</g>
<g>
</g>
<g>
</g>
<g>
</g>
<g>
</g>
<g>
</g>
</svg>
