<?xml version="1.0" encoding="utf-8"?>
<!-- Generator: Adobe Illustrator 18.1.1, SVG Export Plug-In . SVG Version: 6.00 Build 0)  -->
<svg version="1.1" id="Layer_1" xmlns="http://www.w3.org/2000/svg" xmlns:xlink="http://www.w3.org/1999/xlink" x="0px" y="0px"
	 viewBox="0 0 32 22.6" enable-background="new 0 0 32 22.6" xml:space="preserve">
<g>
	<polygon points="28.8,15.7 28.8,0 3,0 3,15.7 0,15.7 0,18.7 12.4,18.7 12.4,15.7 5,15.7 5,2 26.8,2 26.8,15.7 25.6,15.7 21.8,15.7 
		21.5,15.7 21.5,18.7 25.6,18.7 32,18.7 32,15.7 	"/>
	<path d="M19.5,16.4H17v-4.7c1.4-0.5,2.4-1.9,2.4-3.5c0-2.1-1.7-3.7-3.7-3.7c-2.1,0-3.7,1.7-3.7,3.7c0,1.6,1.1,3,2.5,3.5v10.9h2.3
		v-2.3h2.8V16.4z M13.6,8.2c0-1.1,0.9-2,2-2c1.1,0,2,0.9,2,2c0,1.1-0.9,2-2,2C14.5,10.2,13.6,9.3,13.6,8.2z"/>
</g>
<g>
</g>
<g>
</g>
<g>
</g>
<g>
</g>
<g>
</g>
<g>
</g>
</svg>
