<?xml version="1.0" encoding="utf-8"?>
<!-- Generator: Adobe Illustrator 18.1.1, SVG Export Plug-In . SVG Version: 6.00 Build 0)  -->
<svg version="1.1" xmlns="http://www.w3.org/2000/svg" xmlns:xlink="http://www.w3.org/1999/xlink" x="0px" y="0px"
	 viewBox="0 0 50 50" enable-background="new 0 0 50 50" xml:space="preserve">
<g id="Layer_1">
	<path d="M35.6,33.5c-2.3,0-6.6,0.3-9.9,2V17.1c1-0.5,5.6-2.9,11.6-3v19.4C37,33.6,36.4,33.5,35.6,33.5z M24.3,35.5V17.1
		c-1-0.5-5.6-2.9-11.6-3v19.4c0.4,0,1-0.1,1.7-0.1C16.7,33.5,20.9,33.8,24.3,35.5z M38.1,16.4v0.8h0.5v18.7
		c-1.5-0.2-6.4-0.7-10.8,0.5c0,0-1.8,0.6-2.8,0.7c-1.1-0.2-2.8-0.7-2.8-0.7c-4.4-1.2-9.3-0.7-10.8-0.5V17.2h0.5v-0.8h-1.3v20.4
		l0.5-0.1c0.1,0,6-0.9,10.9,0.4c0.1,0,1.3,0.4,2.4,0.6c0,0,0.5,0.2,1.1,0c1.1-0.2,2.4-0.6,2.5-0.7c5-1.3,10.9-0.4,11-0.4l0.5,0.1
		V16.4H38.1z"/>
</g>
<g id="Layer_2">
</g>
</svg>
