<?xml version="1.0" encoding="utf-8"?>
<!-- Generator: Adobe Illustrator 18.1.1, SVG Export Plug-In . SVG Version: 6.00 Build 0)  -->
<svg version="1.1" id="Layer_1" xmlns="http://www.w3.org/2000/svg" xmlns:xlink="http://www.w3.org/1999/xlink" x="0px" y="0px"
	 viewBox="-32 0 134.9 137" enable-background="new -32 0 134.9 137" xml:space="preserve">
<path fill-rule="evenodd" clip-rule="evenodd" d="M5.9,0L-32,37.5l0,99.5H76v-16.3c0,0-3.6,1.1-7,0v9.3h-94V39.9l1-0.9L10,39V7h59
	v61.8c3.1-0.6,7,0.1,7,0.1V0H5.9z"/>
<path fill-rule="evenodd" clip-rule="evenodd" d="M91.7,106.5l11.3,11.3l-8.2,8.2l-11.2-11.2C87,112.8,89.8,109.9,91.7,106.5
	 M71.6,74c11.4,0,20.6,9.3,20.6,20.7c0,11.4-9.2,20.7-20.6,20.7c-11.4,0-20.6-9.3-20.6-20.7C51,83.3,60.2,74,71.6,74 M71.6,111.6
	c9.3,0,16.8-7.6,16.8-16.9c0-9.3-7.5-16.9-16.8-16.9c-9.3,0-16.8,7.6-16.8,16.9C54.8,104,62.3,111.6,71.6,111.6"/>
</svg>
