<?xml version="1.0" encoding="utf-8"?>
<!-- Generator: Adobe Illustrator 18.1.1, SVG Export Plug-In . SVG Version: 6.00 Build 0)  -->
<svg version="1.1" id="Layer_1" xmlns="http://www.w3.org/2000/svg" xmlns:xlink="http://www.w3.org/1999/xlink" x="0px" y="0px"
	 viewBox="0 0 30 30" enable-background="new 0 0 30 30" xml:space="preserve">
<path d="M10.2,0L3,7.6V30h23.3V0H10.2z M24.4,28.1H4.9V8.4h6.2V1.9h13.4V28.1z M21.5,16.4H10.8v-1.9h10.7V16.4z M21.5,20.4H10.8
	v-1.9h10.7V20.4z M17.1,24.4h-6.3v-1.9h6.3V24.4z M9.2,15.5c0,0.7-0.6,1.2-1.2,1.2s-1.2-0.6-1.2-1.2c0-0.7,0.6-1.2,1.2-1.2
	S9.2,14.8,9.2,15.5z M9.2,19.5c0,0.7-0.6,1.2-1.2,1.2s-1.2-0.6-1.2-1.2c0-0.7,0.6-1.2,1.2-1.2S9.2,18.8,9.2,19.5z M9.2,23.5
	c0,0.7-0.6,1.2-1.2,1.2s-1.2-0.6-1.2-1.2c0-0.7,0.6-1.2,1.2-1.2S9.2,22.8,9.2,23.5z"/>
</svg>
