<?xml version="1.0" encoding="utf-8"?>
<!-- Generator: Adobe Illustrator 18.1.1, SVG Export Plug-In . SVG Version: 6.00 Build 0)  -->
<svg version="1.1" xmlns="http://www.w3.org/2000/svg" xmlns:xlink="http://www.w3.org/1999/xlink" x="0px" y="0px"
	 viewBox="0 0 48 48" enable-background="new 0 0 48 48" xml:space="preserve">
<g id="Layer_1">
	<rect x="19.4" y="23.5" width="25.5" height="11.7"/>
	<polygon points="39.3,38.2 39.3,44.2 7.9,44.2 7.9,13.9 7.9,13.9 17.8,13.9 17.8,3.5 39.3,3.5 39.3,20.5 42.3,20.5 42.3,0.5 
		16.5,0.5 4.9,12.7 4.9,47.2 42.3,47.2 42.3,38.2 	"/>
	<g>
		<path fill="#FFFFFF" d="M25.2,26.1c0.4,0,0.8,0,1.1,0.1c0.3,0,0.6,0.1,0.8,0.2c0.5,0.2,0.9,0.6,1.2,1.1c0.3,0.5,0.4,1.2,0.4,2
			c0,0.6-0.1,1.2-0.3,1.6s-0.4,0.9-0.8,1.1c-0.3,0.2-0.6,0.4-1,0.4c-0.4,0.1-0.9,0.1-1.5,0.1h-1.7v-6.7H25.2z M25,31.4h0.4
			c0.3,0,0.6,0,0.8-0.1c0.2-0.1,0.4-0.2,0.5-0.3c0.1-0.2,0.2-0.4,0.3-0.6c0.1-0.3,0.1-0.6,0.1-0.9c0-0.4,0-0.7-0.1-0.9
			c-0.1-0.3-0.2-0.5-0.3-0.6c-0.1-0.1-0.3-0.2-0.5-0.2c-0.2-0.1-0.5-0.1-0.8-0.1H25V31.4z"/>
		<path fill="#FFFFFF" d="M29.7,29.4c0-0.5,0-1,0.1-1.4s0.3-0.8,0.5-1.1c0.2-0.3,0.5-0.5,0.9-0.7c0.4-0.2,0.8-0.2,1.3-0.2
			c0.5,0,0.9,0.1,1.3,0.2c0.4,0.2,0.6,0.4,0.9,0.7c0.2,0.3,0.4,0.7,0.5,1.1c0.1,0.4,0.1,0.9,0.1,1.4v0c0,0.5,0,1-0.1,1.4
			c-0.1,0.4-0.3,0.8-0.5,1.1c-0.2,0.3-0.5,0.5-0.9,0.7c-0.4,0.2-0.8,0.2-1.3,0.2c-0.5,0-0.9-0.1-1.3-0.2c-0.4-0.2-0.6-0.4-0.9-0.7
			c-0.2-0.3-0.4-0.7-0.5-1.1C29.8,30.4,29.7,30,29.7,29.4L29.7,29.4z M32.5,27.4c-0.4,0-0.7,0.2-0.9,0.5c-0.2,0.3-0.3,0.9-0.3,1.6
			c0,0.7,0.1,1.2,0.3,1.6c0.2,0.3,0.5,0.5,0.9,0.5c0.4,0,0.7-0.2,0.9-0.5c0.2-0.3,0.3-0.9,0.3-1.6c0-0.7-0.1-1.2-0.3-1.6
			C33.2,27.5,32.9,27.4,32.5,27.4z"/>
		<path fill="#FFFFFF" d="M36.3,29.5c0-0.5,0.1-1,0.2-1.5c0.1-0.4,0.3-0.8,0.6-1.1c0.3-0.3,0.6-0.5,1-0.7c0.4-0.2,0.8-0.2,1.4-0.2
			c0.2,0,0.5,0,0.7,0.1c0.3,0,0.5,0.1,0.7,0.2l-0.1,1.4c-0.2-0.1-0.3-0.1-0.5-0.1c-0.2,0-0.4-0.1-0.6-0.1c-0.5,0-0.9,0.1-1.2,0.4
			c-0.2,0.2-0.3,0.4-0.4,0.7C38,28.8,38,29.1,38,29.5c0,0.3,0,0.6,0.1,0.9c0.1,0.3,0.2,0.5,0.4,0.7c0.1,0.1,0.3,0.2,0.5,0.3
			c0.2,0.1,0.4,0.1,0.7,0.1c0.2,0,0.4,0,0.6-0.1c0.2,0,0.4-0.1,0.6-0.2l0.1,1.4c-0.1,0-0.2,0.1-0.3,0.1c-0.1,0-0.3,0.1-0.4,0.1
			c-0.1,0-0.3,0-0.4,0.1c-0.1,0-0.3,0-0.4,0c-0.5,0-1-0.1-1.4-0.2c-0.4-0.2-0.7-0.4-1-0.7c-0.3-0.3-0.4-0.6-0.6-1.1
			c-0.1-0.4-0.2-0.9-0.2-1.4V29.5z"/>
	</g>
</g>
<g id="Guidelines">
</g>
</svg>
