<?xml version="1.0" encoding="utf-8"?>
<!-- Generator: Adobe Illustrator 18.1.1, SVG Export Plug-In . SVG Version: 6.00 Build 0)  -->
<svg version="1.1" xmlns="http://www.w3.org/2000/svg" xmlns:xlink="http://www.w3.org/1999/xlink" x="0px" y="0px"
	 viewBox="0 0 48 48" enable-background="new 0 0 48 48" xml:space="preserve">
<g id="Layer_1">
	<rect x="12.9" y="18.4" width="3.7" height="4"/>
	<path d="M20.1,20.6h-2.1v3.2h-6.3v-3.2H0V40h29.3V27.5C25.3,26.5,22,24,20.1,20.6z M8.6,26.8c1.1,0,2,0.9,2,2c0,1.1-0.9,2-2,2
		c-1.1,0-2-0.9-2-2C6.6,27.7,7.5,26.8,8.6,26.8z M4.6,35.5c0-2.5,1.8-4,4-4c2.2,0,4,1.6,4,4H4.6z M25.4,35.5h-8.6v-1.2h8.6V35.5z
		 M25.4,32.2h-8.6V31h8.6V32.2z M25.4,29h-8.6v-1.2h8.6V29z"/>
	<circle cx="32.8" cy="13.3" r="11.6"/>
</g>
<g id="Guidelines">
</g>
</svg>
