<?xml version="1.0" encoding="utf-8"?>
<!-- Generator: Adobe Illustrator 18.1.1, SVG Export Plug-In . SVG Version: 6.00 Build 0)  -->
<svg version="1.1" xmlns="http://www.w3.org/2000/svg" xmlns:xlink="http://www.w3.org/1999/xlink" x="0px" y="0px"
	 viewBox="0 0 48 48" enable-background="new 0 0 48 48" xml:space="preserve">
<g id="Layer_1">
	<g>
		<g>
			<polygon fill="#221F1F" points="20.3,0 20.3,3.7 16.6,3.7 16.6,7.4 31.4,7.4 31.4,3.7 27.7,3.7 27.7,0 			"/>
		</g>
		<g>
			<path fill="#221F1F" d="M33.2,5.5v3.7H14.8V5.5H5.5v3.7V48h36.9V9.2V5.5H33.2z M23.1,13c2,0,3.7,1.7,3.7,3.7c0,2-1.7,3.7-3.7,3.7
				c-2,0-3.7-1.7-3.7-3.7C19.4,14.7,21,13,23.1,13 M25.8,33.2h-5.5V24h5.5V33.2z M36.9,40.6H11.1v-3.7h25.8V40.6z"/>
		</g>
	</g>
</g>
<g id="Guidelines">
</g>
</svg>
