<?xml version="1.0" encoding="utf-8"?>
<!-- Generator: Adobe Illustrator 18.1.1, SVG Export Plug-In . SVG Version: 6.00 Build 0)  -->
<svg version="1.1" xmlns="http://www.w3.org/2000/svg" xmlns:xlink="http://www.w3.org/1999/xlink" x="0px" y="0px"
	 viewBox="0 0 48 48" enable-background="new 0 0 48 48" xml:space="preserve">
<g id="Layer_1">
	<path d="M34.1,31.7h-6.6V19.1c3.7-1.4,6.3-5,6.3-9.2c0-5.5-4.4-9.9-9.9-9.9c-5.5,0-9.9,4.4-9.9,9.9c0,4.3,2.8,8,6.7,9.4V48h6.2v-6
		h7.3V31.7z M18.4,9.9c0-3,2.4-5.4,5.4-5.4c3,0,5.4,2.4,5.4,5.4c0,3-2.4,5.4-5.4,5.4C20.9,15.3,18.4,12.9,18.4,9.9z"/>
</g>
<g id="Guidelines">
</g>
</svg>
