<?xml version="1.0" encoding="utf-8"?>
<!-- Generator: Adobe Illustrator 18.1.1, SVG Export Plug-In . SVG Version: 6.00 Build 0)  -->
<svg version="1.1" xmlns="http://www.w3.org/2000/svg" xmlns:xlink="http://www.w3.org/1999/xlink" x="0px" y="0px"
	 viewBox="0 0 48 48" enable-background="new 0 0 48 48" xml:space="preserve">
<g id="Layer_1">
	<g>
		<path d="M37.6,11.4c-0.1,0-0.1,0-0.2,0l0,0H20.1V0.7H8.9v4.5h6.7v6.2v3v6.5c-1.2,0.8-2,2.1-2,3.6c0,2.4,1.9,4.3,4.3,4.3
			s4.3-1.9,4.3-4.3c0-1.5-0.8-2.9-2.1-3.6v-6.4H31c-1.4,1.6-2.2,3.7-2.2,7.1v13.9L3,35.3V21.7c0-4.1,3.3-7.4,7.4-7.4h0.8v-3h-0.8
			C4.6,11.4,0,16,0,21.7v16.9h20.8v8.7h6v-8.7H48v-2.3v-0.7V21.7C48,16.1,43.2,11.4,37.6,11.4z"/>
	</g>
</g>
<g id="Guidelines">
</g>
</svg>
