<?xml version="1.0" encoding="utf-8"?>
<!-- Generator: Adobe Illustrator 18.1.1, SVG Export Plug-In . SVG Version: 6.00 Build 0)  -->
<svg version="1.1" id="Layer_1" xmlns="http://www.w3.org/2000/svg" xmlns:xlink="http://www.w3.org/1999/xlink" x="0px" y="0px"
	 viewBox="0 0 70 70" enable-background="new 0 0 70 70" xml:space="preserve">
<path d="M51.9,20.1L47,17.4V12h-3v3.1l-8-4.1l-17.1,9.2l1.1,2L21,21v38h29V21l1.3,1.1L51.9,20.1z M33,32h-6v-6h6V32z M44,32h-6v-6h6
	V32z M33,43h-6v-6h6V43z M44,43h-6v-6h6V43z M33,54h-6v-6h6V54z M44,54h-6v-6h6V54z"/>
</svg>
