<?xml version="1.0" encoding="utf-8"?>
<!-- Generator: Adobe Illustrator 18.1.1, SVG Export Plug-In . SVG Version: 6.00 Build 0)  -->
<svg version="1.1" id="Layer_1" xmlns="http://www.w3.org/2000/svg" xmlns:xlink="http://www.w3.org/1999/xlink" x="0px" y="0px"
	 viewBox="0 0 70 70" enable-background="new 0 0 70 70" xml:space="preserve">
<path d="M54.8,23c0,5.8-12.3,27.5-12.3,27.5s-2-3.5-4.3-8c2.1-4.7,3.7-9.1,3.7-11.5c0-1-0.1-2-0.3-3c0.3,0,0.6,0.1,0.9,0.1
	c3.2,0,5.7-2.6,5.7-5.7c0-3.2-2.6-5.7-5.7-5.7c-2.4,0-4.5,1.5-5.3,3.6c-1.5-1.4-3.4-2.6-5.5-3.2c2.1-3.8,6.1-6.3,10.7-6.3
	C49.3,10.7,54.8,16.2,54.8,23z M27.2,36.3c3.2,0,5.7-2.6,5.7-5.7c0-3.2-2.6-5.7-5.7-5.7c-3.2,0-5.7,2.6-5.7,5.7
	C21.5,33.7,24.1,36.3,27.2,36.3 M27.2,18.9c6.8,0,12.3,5.5,12.3,12.3c0,5.8-12.3,27.5-12.3,27.5S15,37,15,31.2
	C15,24.4,20.5,18.9,27.2,18.9"/>
</svg>
