<?xml version="1.0" encoding="utf-8"?>
<!-- Generator: Adobe Illustrator 18.1.1, SVG Export Plug-In . SVG Version: 6.00 Build 0)  -->
<svg version="1.1" id="Layer_1" xmlns="http://www.w3.org/2000/svg" xmlns:xlink="http://www.w3.org/1999/xlink" x="0px" y="0px"
	 viewBox="0 0 19.8 28" enable-background="new 0 0 19.8 28" xml:space="preserve">
<path d="M2.8,1h17.1V0H2.8C1.2,0,0,1.2,0,2.8v2.2v23h19.8V5.5V4.9V4.5h-1.4V2.2h-15v1h14v1.2H2.8C1.8,4.5,1,3.7,1,2.8S1.8,1,2.8,1z
	 M9.9,10.6c1.3,0,2.4,1.1,2.4,2.4c0,1.3-1.1,2.4-2.4,2.4c-1.3,0-2.4-1.1-2.4-2.4C7.5,11.7,8.6,10.6,9.9,10.6z M9.9,16.2
	c2.6,0,4.8,1.9,4.9,4.9H5.1C5.1,18.1,7.3,16.2,9.9,16.2z"/>
<g>
</g>
<g>
</g>
<g>
</g>
<g>
</g>
<g>
</g>
<g>
</g>
</svg>
