<?xml version="1.0" encoding="utf-8"?>
<!-- Generator: Adobe Illustrator 18.1.1, SVG Export Plug-In . SVG Version: 6.00 Build 0)  -->
<svg version="1.1" id="Layer_1" xmlns="http://www.w3.org/2000/svg" xmlns:xlink="http://www.w3.org/1999/xlink" x="0px" y="0px"
	 viewBox="0 0 45.7 19" enable-background="new 0 0 45.7 19" xml:space="preserve">
<g>
	<g>
		<path d="M18,19c-0.1-5.5-4.1-9-9-9c-4.9,0-8.9,3.5-9,9H18z"/>
		<path d="M13.5,4.5C13.5,7,11.5,9,9,9C6.5,9,4.5,7,4.5,4.5S6.5,0,9,0C11.5,0,13.5,2,13.5,4.5"/>
	</g>
	<path d="M27.3,4.5c0,2.5-2,4.5-4.5,4.5c-2.5,0-4.5-2-4.5-4.5s2-4.5,4.5-4.5C25.3,0,27.3,2,27.3,4.5"/>
	<path d="M19.8,19h12c-0.1-5.5-4.1-9-9-9c-2.2,0-4.2,0.7-5.8,2C17,12,19.5,14,19.8,19z"/>
	<path d="M41.2,4.5c0,2.5-2,4.5-4.5,4.5c-2.5,0-4.5-2-4.5-4.5s2-4.5,4.5-4.5C39.2,0,41.2,2,41.2,4.5"/>
	<path d="M33.7,19h12c-0.1-5.5-4.1-9-9-9c-2.2,0-4.2,0.7-5.8,2C30.8,12,33.3,14,33.7,19z"/>
</g>
<g>
</g>
<g>
</g>
<g>
</g>
<g>
</g>
<g>
</g>
<g>
</g>
</svg>
