<?xml version="1.0" encoding="utf-8"?>
<!-- Generator: Adobe Illustrator 18.1.1, SVG Export Plug-In . SVG Version: 6.00 Build 0)  -->
<svg version="1.1" id="Layer_1" xmlns="http://www.w3.org/2000/svg" xmlns:xlink="http://www.w3.org/1999/xlink" x="0px" y="0px"
	 viewBox="0 0 107.2 93.7" enable-background="new 0 0 107.2 93.7" xml:space="preserve">
<path fill-rule="evenodd" clip-rule="evenodd" d="M20.5,24.6c0-12,9.7-21.6,21.6-21.6C54,3,63.7,12.7,63.7,24.6
	c0,12-9.6,21.6-21.6,21.6C30.2,46.3,20.5,36.6,20.5,24.6 M42.1,49.4C19.8,49.4,1.7,67.6,1.7,90h80.9C82.5,67.6,64.4,49.4,42.1,49.4"
	/>
<polygon fill-rule="evenodd" clip-rule="evenodd" points="84.7,28 84.7,41.1 71.7,41.1 71.7,48.9 84.7,48.9 84.7,62 92.6,62 
	92.6,48.9 105.7,48.9 105.7,41.1 92.6,41.1 92.6,28 "/>
</svg>
