<?xml version="1.0" encoding="utf-8"?>
<!-- Generator: Adobe Illustrator 18.1.1, SVG Export Plug-In . SVG Version: 6.00 Build 0)  -->
<svg version="1.1" id="Layer_1" xmlns="http://www.w3.org/2000/svg" xmlns:xlink="http://www.w3.org/1999/xlink" x="0px" y="0px"
	 viewBox="0 0 1280 800" enable-background="new 0 0 1280 800" xml:space="preserve">
<g id="Layer_1_1_">
</g>
<path d="M748.6,295.6c-0.5,0-1,0.1-1.5,0.1v-0.1H608.6v-87.7h-88.8v36.9h53v50.8v24.6v53.1c-9.4,6.2-15.7,17-15.7,29.4
	c0,19.3,15.2,35,34,35s34-15.7,34-35c0-12.7-6.6-23.7-16.4-29.8v-52.7h87.2c-11,12.8-17.8,30.2-17.8,57.8v113.8l-205.3,0.1V380.4
	c0-33.2,26.3-60.3,58.6-60.3h6.3v-24.6h-6.3c-45.5,0-82.5,38.1-82.5,84.9V519h165.7v71.2h47.8V519h168.7v-18.8v-5.8V380.2
	C831.1,334.2,793.2,295.6,748.6,295.6"/>
</svg>
