<?xml version="1.0" encoding="utf-8"?>
<!-- Generator: Adobe Illustrator 18.1.1, SVG Export Plug-In . SVG Version: 6.00 Build 0)  -->
<svg version="1.1" id="Layer_1" xmlns="http://www.w3.org/2000/svg" xmlns:xlink="http://www.w3.org/1999/xlink" x="0px" y="0px"
	 viewBox="0 0 56 56" enable-background="new 0 0 56 56" xml:space="preserve">
<path fill-rule="evenodd" clip-rule="evenodd" d="M21.6,26.3V30h2v1.7c0,1.6-0.5,2.7-1.9,3.1l0.1,3.6h11.9l0.4-3.8h-7.3v-0.1
	c1-0.7,1.3-1.8,1.3-3.4V30h3.6l0.4-3.7h-4.1V25c0-2.1,0.9-3.1,2.7-3.1c1,0,2,0.2,3,0.6l0.6-4.2c-1.4-0.5-2.9-0.8-4.5-0.8
	c-4.3,0-6.4,2.6-6.4,7.1v1.7L21.6,26.3L21.6,26.3z"/>
</svg>
