<?xml version="1.0" encoding="utf-8"?>
<!-- Generator: Adobe Illustrator 18.1.0, SVG Export Plug-In . SVG Version: 6.00 Build 0)  -->
<svg version="1.1" id="Layer_1" xmlns="http://www.w3.org/2000/svg" xmlns:xlink="http://www.w3.org/1999/xlink" x="0px" y="0px"
	 viewBox="0 0 56 56" enable-background="new 0 0 56 56" xml:space="preserve">
<path fill="#010101" d="M25.7,36.6L25.7,36.6L37,36.7l-0.8,5.5H17.7L17.6,38l10.1-6.9v0.8C27.7,33.9,27.4,35.7,25.7,36.6L25.7,36.6z
	 M27.7,24.6v-2c0-3.1,1.3-4.5,4.2-4.5c1.7,0,3.2,0.3,4.7,0.9l0.9-6c-2.2-0.8-4.5-1.2-7-1.2c-6.8,0-10,3.8-10,10.4v2.4h-3.1v5.3h3.2
	v0.6l8.7-5.9L27.7,24.6L27.7,24.6z M33.5,29.9l0.3-3.1l-4.4,3.1H33.5z M15.3,37.8l26.4-18l-0.9-1.3L14.4,36.7L15.3,37.8z"/>
</svg>
