<?xml version="1.0" encoding="utf-8"?>
<!-- Generator: Adobe Illustrator 18.1.1, SVG Export Plug-In . SVG Version: 6.00 Build 0)  -->
<svg version="1.1" id="Layer_1" xmlns="http://www.w3.org/2000/svg" xmlns:xlink="http://www.w3.org/1999/xlink" x="0px" y="0px"
	 viewBox="0 0 56 56" enable-background="new 0 0 56 56" xml:space="preserve">
<path fill-rule="evenodd" clip-rule="evenodd" d="M26.5,34.5L26.5,34.5l7.7,0.1l-0.5,3.8H21.1L21,35.5l6.9-4.7v0.5
	C27.9,32.7,27.6,33.9,26.5,34.5L26.5,34.5z M27.9,26.3V25c0-2.1,0.9-3.1,2.9-3.1c1.1,0,2.2,0.2,3.2,0.6l0.6-4.1
	c-1.5-0.5-3.1-0.8-4.8-0.8c-4.6,0-6.8,2.6-6.8,7.1v1.7h-2.2V30H23v0.4l5.9-4L27.9,26.3L27.9,26.3z M31.8,30l0.2-2.1L29,30H31.8z
	 M19.4,35.3l17.9-12.2l-0.6-0.9L18.8,34.5L19.4,35.3z"/>
</svg>
