<?xml version="1.0" encoding="utf-8"?>
<!-- Generator: Adobe Illustrator 19.2.0, SVG Export Plug-In . SVG Version: 6.00 Build 0)  -->
<svg version="1.1" id="Layer_1" xmlns="http://www.w3.org/2000/svg" xmlns:xlink="http://www.w3.org/1999/xlink" x="0px" y="0px"
	 viewBox="0 0 111 49" style="enable-background:new 0 0 111 49;" xml:space="preserve">
<style type="text/css">
	.st0{fill-rule:evenodd;clip-rule:evenodd;}
</style>
<path class="st0" d="M48.8,36.1c0,1.7-1.4,3.1-3.1,3.1c-1.7,0-3.1-1.4-3.1-3.1c0-1.7,1.4-3.1,3.1-3.1C47.4,33,48.8,34.4,48.8,36.1z
	 M70.5,35.9c0,1.7-1.4,3.1-3.1,3.1c-1.7,0-3.1-1.4-3.1-3.1c0-1.7,1.4-3.1,3.1-3.1C69.1,32.8,70.5,34.2,70.5,35.9z M59.8,26v-5.1h7
	l2.1,5.1H59.8z M73.1,26.3l-3.4-9.2H33V36h7.4v0.2c0-3,2.4-5.4,5.4-5.4c3,0,5.4,2.4,5.4,5.4V36H62c0,0,0,0,0-0.1
	c0-3,2.4-5.4,5.4-5.4c3,0,5.4,2.4,5.4,5.4c0,0.1,0,0.1,0,0.1H78v-8.3L73.1,26.3z"/>
</svg>
