<?xml version="1.0" encoding="utf-8"?>
<!-- Generator: Adobe Illustrator 19.2.0, SVG Export Plug-In . SVG Version: 6.00 Build 0)  -->
<svg version="1.1" id="Layer_1" xmlns="http://www.w3.org/2000/svg" xmlns:xlink="http://www.w3.org/1999/xlink" x="0px" y="0px"
	 viewBox="0 0 111 49" style="enable-background:new 0 0 111 49;" xml:space="preserve">
<style type="text/css">
	.st0{fill-rule:evenodd;clip-rule:evenodd;}
</style>
<path class="st0" d="M61.1,19.6V25h5.4v3.2h-5.4v5.4h-3.2v-5.4h-5.4V25h5.4v-5.4H61.1z M82.6,25.4c3,0,5.4-2.5,5.4-5.5
	c0-3-2.4-5.5-5.4-5.5c-3,0-5.4,2.5-5.4,5.5C77.2,23,79.6,25.4,82.6,25.4z M92.6,36.6H72.5c0-5.7,4.5-10.3,10.1-10.3
	C88.1,26.2,92.6,30.9,92.6,36.6z M93,20.1c0-2.1,1.7-3.8,3.7-3.8c2,0,3.7,1.7,3.7,3.8c0,2.1-1.7,3.8-3.7,3.8
	C94.7,23.9,93,22.2,93,20.1z M96.7,24.5c3.8,0,6.8,3.1,6.8,6.9H93.3c-0.6-1.3-1.4-2.5-2.4-3.5C92,25.9,94.2,24.5,96.7,24.5
	 M17.9,31.5c-1.4,0-2.6,1.1-2.6,2.5s1.1,2.5,2.6,2.5c1.4,0,2.6-1.1,2.6-2.5S19.3,31.5,17.9,31.5z M35.8,31.4c-1.4,0-2.6,1.1-2.6,2.5
	c0,1.4,1.1,2.5,2.6,2.5c1.4,0,2.6-1.1,2.6-2.5C38.3,32.5,37.2,31.4,35.8,31.4z M37,25.8l-1.7-4.2h-5.7v4.2H37z M44.5,27.2v6.7h-4.3
	c0,0,0,0,0-0.1c0-2.4-2-4.4-4.5-4.4c-2.5,0-4.5,1.9-4.5,4.4c0,0,0,0.1,0,0.1h-8.9V34c0-2.4-2-4.4-4.4-4.4c-2.5,0-4.4,2-4.4,4.4v-0.1
	H7.5V18.6h30.2l2.8,7.5L44.5,27.2z"/>
</svg>
