<?xml version="1.0" encoding="utf-8"?>
<!-- Generator: Adobe Illustrator 18.1.1, SVG Export Plug-In . SVG Version: 6.00 Build 0)  -->
<svg version="1.1" id="Layer_1" xmlns="http://www.w3.org/2000/svg" xmlns:xlink="http://www.w3.org/1999/xlink" x="0px" y="0px"
	 viewBox="0 0 80 100" enable-background="new 0 0 80 100" xml:space="preserve">
<path d="M68.3,28.9c0,13.2-9,23.5-20.9,27l-1.5,0.5v15.4H34.2V45.1L40,45c9.5,0,16.2-7.7,16.2-16.2c0-9.5-6.7-16.2-16.2-16.2
	c-9.7,0-16.2,8.5-16.2,16.2l-12.1,0C12.3,12,24.6,0.4,39.8,0.4C55.5,0.4,68.3,13.2,68.3,28.9z M39.8,82.7c-4.7,0-8.5,3.8-8.5,8.5
	c0,4.7,3.8,8.6,8.5,8.6c4.7,0,8.6-3.8,8.6-8.6C48.3,86.5,44.5,82.7,39.8,82.7z"/>
<g>
</g>
<g>
</g>
<g>
</g>
<g>
</g>
<g>
</g>
<g>
</g>
</svg>
