<?xml version="1.0" encoding="utf-8"?>
<!-- Generator: Adobe Illustrator 19.2.0, SVG Export Plug-In . SVG Version: 6.00 Build 0)  -->
<svg version="1.1" id="Layer_1" xmlns="http://www.w3.org/2000/svg" xmlns:xlink="http://www.w3.org/1999/xlink" x="0px" y="0px"
	 viewBox="0 0 111 49" style="enable-background:new 0 0 111 49;" xml:space="preserve">
<style type="text/css">
	.st0{fill-rule:evenodd;clip-rule:evenodd;}
</style>
<path class="st0" d="M41.8,19c0-3.7,2.9-6.6,6.6-6.6c3.6,0,6.6,3,6.6,6.6c0,3.6-2.9,6.6-6.6,6.6C44.7,25.6,41.8,22.6,41.8,19z
	 M48.3,26.5c-6.8,0-12.3,5.5-12.3,12.4h24.7C60.7,32.1,55.2,26.5,48.3,26.5z M65.7,23.8c2.5,0,4.5-2,4.5-4.5c0-2.5-2-4.5-4.5-4.5
	s-4.5,2-4.5,4.5C61.1,21.7,63.2,23.8,65.7,23.8z M65.7,24.4c-3.1,0-5.7,1.7-7.2,4.1c1.2,1.2,2.2,2.6,3,4.2H74
	C74,28.1,70.3,24.4,65.7,24.4"/>
</svg>
