<?xml version="1.0" encoding="utf-8"?>
<!-- Generator: Adobe Illustrator 18.1.1, SVG Export Plug-In . SVG Version: 6.00 Build 0)  -->
<svg version="1.1" id="Layer_1" xmlns:sketch="http://www.bohemiancoding.com/sketch/ns"
	 xmlns="http://www.w3.org/2000/svg" xmlns:xlink="http://www.w3.org/1999/xlink" x="0px" y="0px" viewBox="-1 3 26 26"
	 enable-background="new -1 3 26 26" xml:space="preserve">
<title>Page 1</title>
<desc>Created with Sketch.</desc>
<g id="Page-1_1_" sketch:type="MSPage">
	<g id="Set-Permissions-" transform="translate(-452.000000, -412.000000)" sketch:type="MSArtboardGroup">
		<g id="Header" sketch:type="MSLayerGroup">
			<g id="Create-advanced-permissions" transform="translate(452.000000, 412.000000)" sketch:type="MSShapeGroup">
				<path id="Page-1" d="M11.9,19.9c-2.3,0-4.2-1.8-4.2-4c0-2.2,1.9-4,4.2-4c2.3,0,4.2,1.8,4.2,4C16.1,18.1,14.2,19.9,11.9,19.9
					L11.9,19.9z M25,17.5v-3.2l-3.5-0.9c-0.2-0.8-0.5-1.6-0.9-2.3l2-3.1l-2.4-2.3l-3.3,1.9c-0.8-0.4-1.6-0.8-2.4-1L13.6,3h-3.4
					L9.3,6.6c-0.9,0.2-1.7,0.6-2.4,1L3.6,5.7L1.2,8l2,3.1c-0.4,0.7-0.5,1.5-0.7,2.3L-1,14.3v3.2l3.4,0.9c0.2,0.8,0.4,1.6,0.9,2.3
					l-2,3.1l2.3,2.3l3.3-1.9c0.8,0.4,1.6,0.8,2.4,1.1l0.9,3.7h3.4l0.9-3.7c0.9-0.2,1.7-0.6,2.4-1l3.3,1.9l2.4-2.3l-2-3.1
					c0.4-0.7,0.6-1.5,0.8-2.3L25,17.5z"/>
			</g>
		</g>
	</g>
</g>
</svg>
