<?xml version="1.0" encoding="utf-8"?>
<!-- Generator: Adobe Illustrator 18.1.1, SVG Export Plug-In . SVG Version: 6.00 Build 0)  -->
<svg version="1.1" id="Layer_1" xmlns="http://www.w3.org/2000/svg" xmlns:xlink="http://www.w3.org/1999/xlink" x="0px" y="0px"
	 viewBox="0 0 70 70" enable-background="new 0 0 70 70" xml:space="preserve">
<path fill="#231F20" d="M47.7,40.4H23.3l4-3.6h16.6L47.7,40.4z M51,16.8H19.3l-8.2,6.7H59L51,16.8z M16.7,25.3h-5.5V28l2.8,1.3
	l2.8-1.3V25.3z M23.7,25.3h-5.5V28l2.8,1.3l2.8-1.3V25.3z M30.8,25.3h-5.5V28l2.8,1.3l2.8-1.3V25.3z M37.9,25.3h-5.5V28l2.8,1.3
	l2.8-1.3V25.3z M44.9,25.3h-5.5V28l2.8,1.3l2.8-1.3V25.3z M52,25.3h-5.5V28l2.8,1.3L52,28V25.3z M59,25.3h-5.5V28l2.8,1.3L59,28
	V25.3z M53.7,53.6v-21h-3.3v10.5H19.8V32.6h-3.3v21H53.7z"/>
</svg>
