<?xml version="1.0" encoding="utf-8"?>
<!-- Generator: Adobe Illustrator 18.1.1, SVG Export Plug-In . SVG Version: 6.00 Build 0)  -->
<svg version="1.1" id="Layer_1" xmlns="http://www.w3.org/2000/svg" xmlns:xlink="http://www.w3.org/1999/xlink" x="0px" y="0px"
	 viewBox="0 0 30 30" enable-background="new 0 0 30 30" xml:space="preserve">
<path d="M13.9,21c0.3,0.3,0.5,0.4,0.7,0.7c0.3,0.4,0.5,1.1-0.1,1.1c-0.5,0-1.1-0.5-1.5-1c-0.3-0.3-0.7-0.4-1.1-0.4
	c-0.3,0-0.8,0-1.1,0c-0.6,0-1.3-0.2-1.8-0.5c-0.6-0.4-0.7-1-0.8-1.7c0-0.2-0.2-0.4-0.4-0.3c-0.1,0.1-0.2,0.5-0.3,0.6
	c-0.1,0.3-0.3,0.6-0.4,0.8c-0.8,1.4-1.4,2.2-2,2.2c-0.3,0-0.7-0.1-1-0.7S3.8,20.3,4,19.1c-0.4,1-0.9,1.7-1.4,3
	c-0.4,0.8-1.2,0.4-1.2,0.4c-0.3-0.1-0.5-0.5-0.4-1c2.3-5,4.4-9.1,5.5-11.7C6.7,9.3,7,9.3,7.2,9.4c0.6,0.3,0.1,1.2,0,1.7
	c-0.1,0.3-0.2,0.6-0.3,0.9c-0.2,0.5-0.4,1.1-0.6,1.6c-0.3,0.9-0.6,1.9-0.8,2.8c-0.2,0.7-0.3,1.4-0.4,2.1c-0.1,0.4-0.1,0.7-0.1,1.1
	c0,0.2,0,0.4,0.2,0.6c0.2,0.2,0.3-0.1,0.4-0.2c0.5-0.7,0.9-1.4,1.4-2.1c0.4-0.6,0.8-1.2,1.5-1.6c0.1,0,0.4-0.1,0.5,0
	c0.5,0.2,0.6,0.7,0.5,1.2c-0.1,0.5-0.2,0.9-0.1,1.4c0,0.3,0.4,0.8,0.6,0.9c0.9,0.5,1.9,0.1,2.9,0.4C13.2,20.3,13.6,20.6,13.9,21z
	 M27,5.9l0.3-0.5C28,4,27.5,2.6,26.2,1.9S23.5,1.8,22.8,3l-5.9,12l4.5,2.2l5-10.4l1.8,0.8l-1.9,3.8l1,0.4l2.3-4.6L27,5.9z
	 M16.1,22.5l0.1-5.5l4.4,2L16.1,22.5z M24.7,26.3H0.1v1.4h24.5v-1.4H24.7z"/>
</svg>
