<?xml version="1.0" encoding="utf-8"?>
<!-- Generator: Adobe Illustrator 18.1.1, SVG Export Plug-In . SVG Version: 6.00 Build 0)  -->
<svg version="1.1" xmlns="http://www.w3.org/2000/svg" xmlns:xlink="http://www.w3.org/1999/xlink" x="0px" y="0px"
	 viewBox="0 0 48 48" enable-background="new 0 0 48 48" xml:space="preserve">
<g id="Layer_1">
</g>
<g id="Guidelines">
	<path d="M4.1,41.7c-0.1,0-0.2,0-0.3-0.1c-0.3-0.2-0.5-0.6-0.3-1c3.6-6.3,6.6-11.5,8.4-14.7c0.4-0.7,0.8-0.6,1.1-0.5
		c0.2,0.1,0.6,0.4,0.3,1l0,0l0,0c0,0,0,0.1,0,0.1c-3.5,6.8-5.5,12.2-4.9,13.7c0.4-0.3,1.1-1.3,1.5-2c1.2-1.7,2.5-3.6,4.1-4
		c0.5-0.2,0.9,0.1,1,0.2c0.5,0.5,0.3,1.4-0.1,2.5c-0.2,0.6-0.5,1.7-0.4,2c0.3,0.6,2.1,0.9,3.4,0.8c0.7-0.1,1.1-0.6,1.5-1
		c0.3-0.4,0.5-0.7,1-0.7c0.3,0,0.5,0.1,0.7,0.2c0.2,0.2,0.4,0.5,0.6,0.7c0.3,0.5,0.6,0.9,0.9,0.9c0.4,0,0.7,0.4,0.7,0.8
		c0,0.4-0.4,0.7-0.8,0.7c-1.1-0.1-1.7-1-2-1.6c0,0,0,0,0,0c-0.4,0.6-1.1,1.4-2.4,1.5c-1,0.1-3.9,0-4.8-1.5c-0.4-0.8-0.1-1.9,0.2-3.1
		c0.1-0.2,0.1-0.4,0.2-0.6c-0.9,0.6-1.8,2-2.6,3.1c-1.2,1.7-2,2.8-3,2.7c-0.3,0-0.8-0.3-1.1-1c-0.3-0.8-0.2-2,0.2-3.5
		c-0.7,1.3-1.5,2.6-2.3,4C4.7,41.6,4.4,41.8,4.1,41.7z M42.2,44.8H0v2h42.2V44.8z M31.6,36.9L26,34.4l0,7L31.6,36.9z M46.9,12.4
		L46.9,12.4l-0.4-0.2l-2.2-1c0,0,0,0,0,0l-4-1.8l0.4-0.9l3.9,1.8c0.6-2.1-0.2-3.9-2-4.8c-1.9-0.9-4.4,0-5.5,2.5L26.3,31.6l7.1,3.3
		l10-21.8l1.8,0.8l-3.1,6.8l1.8,0.8l4-8.7L46.9,12.4z"/>
</g>
</svg>
