<?xml version="1.0" encoding="utf-8"?>
<!-- Generator: Adobe Illustrator 19.2.0, SVG Export Plug-In . SVG Version: 6.00 Build 0)  -->
<svg version="1.1" id="Layer_1" xmlns="http://www.w3.org/2000/svg" xmlns:xlink="http://www.w3.org/1999/xlink" x="0px" y="0px"
	 viewBox="0 0 23.5 22.3" style="enable-background:new 0 0 23.5 22.3;" xml:space="preserve">
<style type="text/css">
	.st0{fill-rule:evenodd;clip-rule:evenodd;}
</style>
<path class="st0" d="M11.4,8.1h0.8v5h-0.8V8.1z M19.3,12c0,4.1-3.4,7.4-7.5,7.4c-4.1,0-7.5-3.3-7.5-7.4c0-3.7,2.8-6.8,6.4-7.3V2.8
	h2.3v1.9c1.2,0.2,2.3,0.7,3.3,1.4l1.4-1.4l1.6,1.6l-1.4,1.4C18.7,8.9,19.3,10.4,19.3,12z M17.9,12c0-3.3-2.7-6-6.1-6
	c-3.4,0-6.1,2.7-6.1,6c0,3.3,2.7,6,6.1,6C15.1,18.1,17.9,15.4,17.9,12z"/>
</svg>
