<?xml version="1.0" encoding="utf-8"?>
<!-- Generator: Adobe Illustrator 19.2.0, SVG Export Plug-In . SVG Version: 6.00 Build 0)  -->
<svg version="1.1" id="Layer_1" xmlns="http://www.w3.org/2000/svg" xmlns:xlink="http://www.w3.org/1999/xlink" x="0px" y="0px"
	 viewBox="0 0 68.5 64.8" style="enable-background:new 0 0 68.5 64.8;" xml:space="preserve">
<path d="M37,14.5c1.6-1.6,3.4-3.6,3.4-4.5c0-1.4-2.6-1.4-5.8-1.4c-3.2,0-5.8,0-5.8,1.4c0,0.8,1.8,2.8,3.4,4.5
	c-10.6,1.2-18.8,10.2-18.8,21.1c0,11.7,9.5,21.2,21.2,21.2s21.2-9.5,21.2-21.2C55.8,24.7,47.6,15.7,37,14.5z M34.6,53.1
	c-9.6,0-17.4-7.8-17.4-17.4c0-9.6,7.8-17.4,17.4-17.4S52.1,26,52.1,35.6C52.1,45.2,44.2,53.1,34.6,53.1z M34.6,19.6
	c0,0,3.1,14.7,3.1,16.5s-1.4,3.1-3.1,3.1s-3.1-1.4-3.1-3.1S34.6,19.6,34.6,19.6z"/>
</svg>
