<?xml version="1.0" encoding="utf-8"?>
<!-- Generator: Adobe Illustrator 19.2.0, SVG Export Plug-In . SVG Version: 6.00 Build 0)  -->
<svg version="1.1" id="Layer_1" xmlns="http://www.w3.org/2000/svg" xmlns:xlink="http://www.w3.org/1999/xlink" x="0px" y="0px"
	 viewBox="0 0 35.2 35.2" style="enable-background:new 0 0 35.2 35.2;" xml:space="preserve">
<style type="text/css">
	.st0{fill-rule:evenodd;clip-rule:evenodd;}
</style>
<path class="st0" d="M15.8,29.8c-3.7-0.7-6.6-3.6-7.4-7.2c-1.7-0.7-2.8-2.4-2.8-4.3c0-2,1.2-3.7,3-4.4c0.1-5.1,4.4-9.2,9.5-9.2
	c5.2,0,9.4,4.1,9.5,9.2c1.7,0.7,3,2.4,3,4.4c0,2.6-2.1,4.8-4.8,4.8c0,0-0.1,0-0.1,0v-9.3c-0.2-4-3.5-7.1-7.6-7.1
	c-4.1,0-7.5,3.3-7.6,7.4v3.9c0,0.5,0,0.8,0,0.8h0v4.2c0.8,2.6,3,4.6,5.7,5.1c0.4-0.6,1.1-1,1.9-1c1.3,0,2.3,1,2.3,2.3
	c0,1.3-1,2.3-2.3,2.3C17,31.5,16.1,30.8,15.8,29.8"/>
</svg>
