<?xml version="1.0" encoding="utf-8"?>
<!-- Generator: Adobe Illustrator 18.1.1, SVG Export Plug-In . SVG Version: 6.00 Build 0)  -->
<svg version="1.1" xmlns="http://www.w3.org/2000/svg" xmlns:xlink="http://www.w3.org/1999/xlink" x="0px" y="0px"
	 viewBox="0 0 48 48" enable-background="new 0 0 48 48" xml:space="preserve">
<g id="Layer_1">
</g>
<g id="Guidelines">
	<g>
		<path d="M48,27v-6.3L41.3,19c-0.4-1.4-1-2.8-1.7-4l3.5-5.8l-4.4-4.4l-5.9,3.6C31.4,7.5,30,7,28.6,6.6L27,0h-6.3L19,6.7
			c-1.4,0.4-2.8,1-4,1.7L9.1,4.9L4.7,9.4l3.6,5.9C7.5,16.6,7,18,6.6,19.4L0,21v6.3L6.7,29c0.4,1.4,1,2.8,1.7,4l-3.5,5.8l4.4,4.4
			l5.9-3.6c1.3,0.7,2.6,1.2,4.1,1.6L21,48h6.3l1.7-6.7c1.4-0.4,2.8-1,4-1.7l5.8,3.5l4.4-4.4l-3.6-5.9c0.7-1.3,1.2-2.6,1.6-4.1L48,27
			z M24,31.5c-4.1,0-7.5-3.4-7.5-7.5c0-4.1,3.4-7.5,7.5-7.5s7.5,3.4,7.5,7.5C31.5,28.1,28.1,31.5,24,31.5z"/>
	</g>
</g>
</svg>
